<?xml version="1.0" standalone="no"?>
<!DOCTYPE svg PUBLIC "-//W3C//DTD SVG 20010904//EN"
    "http://www.w3.org/TR/2001/REC-SVG-20010904/DTD/svg10.dtd">
<svg version="1.0" xmlns="http://www.w3.org/2000/svg"
     width="200.000000pt" height="200.000000pt" viewBox="0 0 200.000000 200.000000"
     preserveAspectRatio="xMidYMid meet">
    <metadata>
        Created by potrace 1.15, written by Peter Selinger 2001-2017
    </metadata>
    <g transform="translate(0.000000,200.000000) scale(0.100000,-0.100000)"
       fill="#000000" stroke="none">
        <path d="M1170 1485 c0 -5 145 -259 247 -433 52 -89 56 -93 70 -73 69 99 83
357 25 477 l-16 34 -163 0 c-90 0 -163 -2 -163 -5z"/>
        <path d="M1269 1178 c-19 -36 -41 -74 -113 -196 -36 -62 -66 -115 -66 -118 0
-2 -25 -45 -55 -95 -30 -50 -55 -93 -55 -96 0 -3 29 -3 64 1 125 13 235 65
334 160 82 78 81 73 15 184 -32 53 -63 107 -70 119 -6 13 -18 32 -26 44 l-15
21 -13 -24z"/>
        <path d="M490 942 c0 -5 13 -27 29 -48 87 -119 251 -215 370 -218 l54 -1 37
60 c20 33 56 95 79 138 l43 77 -306 0 c-168 0 -306 -4 -306 -8z"/>
        <path d="M905 516 c-42 -18 -93 -79 -101 -121 -25 -134 93 -238 229 -202 26 7
27 9 27 77 l0 70 -45 0 c-41 0 -45 -2 -45 -25 0 -20 5 -25 25 -25 20 0 25 -5
25 -25 0 -31 -35 -42 -84 -25 -95 31 -112 149 -33 216 27 22 38 25 91 22 51
-2 61 0 64 14 7 35 -93 50 -153 24z"/>
        <path d="M160 373 c-39 -15 -60 -47 -60 -89 0 -71 56 -111 127 -92 94 25 80
171 -17 183 -19 2 -42 2 -50 -2z"/>
        <path d="M422 364 c-12 -8 -22 -10 -22 -5 0 6 -18 11 -40 11 -33 0 -40 -3 -40
-20 0 -11 7 -20 15 -20 11 0 15 -12 15 -45 0 -33 -4 -45 -15 -45 -9 0 -15 -9
-15 -25 0 -24 3 -25 55 -25 52 0 55 1 55 25 0 16 -6 25 -15 25 -22 0 -19 46 5
70 36 36 70 19 70 -37 0 -26 -4 -33 -20 -33 -15 0 -20 -7 -20 -25 0 -24 3 -25
60 -25 57 0 60 1 60 25 0 16 -6 25 -15 25 -11 0 -15 12 -15 50 0 37 -5 55 -20
70 -24 24 -67 26 -98 4z"/>
        <path d="M638 364 c-102 -55 -28 -211 82 -173 31 11 38 27 19 46 -8 8 -18 8
-35 0 -18 -7 -28 -7 -35 0 -8 8 6 17 49 33 60 22 60 22 50 51 -10 30 -53 59
-85 59 -10 -1 -30 -7 -45 -16z"/>
        <path d="M1192 364 c-12 -8 -22 -10 -22 -5 0 6 -18 11 -40 11 -33 0 -40 -3
-40 -20 0 -11 7 -20 15 -20 11 0 15 -12 15 -45 0 -33 -4 -45 -15 -45 -9 0 -15
-9 -15 -25 0 -24 3 -25 55 -25 52 0 55 1 55 25 0 16 -6 25 -15 25 -22 0 -19
46 5 70 11 11 27 20 35 20 9 0 15 9 15 25 0 29 -16 32 -48 9z"/>
        <path d="M1311 366 c-55 -31 -66 -99 -23 -146 28 -32 27 -32 150 -31 59 1 62
2 62 26 0 18 -5 25 -20 25 -18 0 -20 7 -20 65 0 65 0 65 -27 65 -16 0 -44 2
-63 5 -21 3 -45 0 -59 -9z"/>
        <path d="M1628 366 c-16 -8 -28 -11 -28 -5 0 5 -18 9 -40 9 -33 0 -40 -3 -40
-20 0 -11 7 -20 15 -20 11 0 15 -12 15 -45 0 -33 -4 -45 -15 -45 -9 0 -15 -9
-15 -25 0 -24 3 -25 55 -25 52 0 55 1 55 25 0 16 -6 25 -15 25 -22 0 -19 46 6
71 11 11 30 19 42 17 18 -2 23 -11 25 -45 2 -34 0 -43 -12 -43 -10 0 -16 -9
-16 -25 0 -24 3 -25 55 -25 52 0 55 1 55 25 0 16 -6 25 -15 25 -22 0 -19 53 3
73 37 34 72 14 72 -40 0 -26 -4 -33 -20 -33 -15 0 -20 -7 -20 -25 0 -24 3 -25
55 -25 52 0 55 1 55 25 0 14 -4 25 -9 25 -5 0 -11 25 -13 56 -3 40 -10 61 -23
70 -25 18 -65 18 -93 -2 -20 -14 -24 -14 -44 0 -28 20 -55 20 -90 2z"/>
    </g>
</svg>
